<svg xmlns="http://www.w3.org/2000/svg" viewBox="0 0 24 24" width="24" height="24" fill="none" aria-hidden="true">
    <path
            d="M6.62 10.79a15.05 15.05 0 0 0 6.59 6.59l2.2-2.2a0.8 0.8 0 0 1 .82-.2c.9.3 1.86.46 2.86.46a0.8 0.8 0 0 1 .8.8V20a0.8 0.8 0 0 1-.8.8C10.9 20.8 3.2 13.1 3.2 4.8A0.8 0.8 0 0 1 4 4h2.76a0.8 0.8 0 0 1 .8.8c0 1 .16 1.96.46 2.86a0.8 0.8 0 0 1-.2.82l-2.2 2.31Z"
            stroke="currentColor"
            stroke-width="1.4"
            stroke-linecap="round"
            stroke-linejoin="round"
    />
</svg>